HIERARCHY
ROOT hip
{
  OFFSET 0 0 0
  CHANNELS 6 Xposition Yposition Zposition Zrotation Yrotation Xrotation
  JOINT abdomen
  {
    OFFSET 0 20.6881 -0.73152
    CHANNELS 3 Zrotation Xrotation Yrotation
    JOINT chest
    {
      OFFSET 0 11.7043 -0.48768
      CHANNELS 3 Zrotation Xrotation Yrotation
      JOINT neck
      {
        OFFSET 0 22.1894 -2.19456
        CHANNELS 3 Zrotation Xrotation Yrotation
        JOINT head
        {
          OFFSET -0.24384 7.07133 1.2192
          CHANNELS 3 Zrotation Xrotation Yrotation
          JOINT leftEye
          {
            OFFSET 4.14528 8.04674 8.04672
            CHANNELS 3 Zrotation Xrotation Yrotation
            End Site
            {
              OFFSET 1 0 0
            }
          }
          JOINT rightEye
          {
            OFFSET -3.6576 8.04674 8.04672
            CHANNELS 3 Zrotation Xrotation Yrotation
            End Site
            {
              OFFSET 1 0 0
            }
          }
        }
      }
      JOINT rCollar
      {
        OFFSET -2.68224 19.2634 -4.8768
        CHANNELS 3 Zrotation Xrotation Yrotation
        JOINT rShldr
        {
          OFFSET -8.77824 -1.95073 1.46304
          CHANNELS 3 Zrotation Xrotation Yrotation
          JOINT rForeArm
          {
            OFFSET -28.1742 -1.7115 0.48768
            CHANNELS 3 Zrotation Xrotation Yrotation
            JOINT rHand
            {
              OFFSET -22.5879 0.773209 7.07136
              CHANNELS 3 Zrotation Xrotation Yrotation
              JOINT rThumb1
              {
                OFFSET -1.2192 -0.487915 3.41376
                CHANNELS 3 Zrotation Xrotation Yrotation
                JOINT rThumb2
                {
                  OFFSET -3.37035 -0.52449 3.41376
                  CHANNELS 3 Zrotation Xrotation Yrotation
                  End Site
                  {
                    OFFSET -1.78271 -1.18214 1.43049
                  }
                }
              }
              JOINT rIndex1
              {
                OFFSET -7.75947 0.938293 5.60832
                CHANNELS 3 Zrotation Xrotation Yrotation
                JOINT rIndex2
                {
                  OFFSET -2.54057 -0.884171 1.56538
                  CHANNELS 3 Zrotation Xrotation Yrotation
                  End Site
                  {
                    OFFSET -1.62519 -0.234802 1.16502
                  }
                }
              }
              JOINT rMid1
              {
                OFFSET -8.24714 1.18213 3.41376
                CHANNELS 3 Zrotation Xrotation Yrotation
                JOINT rMid2
                {
                  OFFSET -3.10165 -0.590103 1.0647
                  CHANNELS 3 Zrotation Xrotation Yrotation
                  End Site
                  {
                    OFFSET -2.48547 -0.328903 0.83742
                  }
                }
              }
              JOINT rRing1
              {
                OFFSET -8.82822 0.546677 1.51678
                CHANNELS 3 Zrotation Xrotation Yrotation
                JOINT rRing2
                {
                  OFFSET -2.60934 -0.819778 -0.0198488
                  CHANNELS 3 Zrotation Xrotation Yrotation
                  End Site
                  {
                    OFFSET -2.33842 -0.294052 0.168128
                  }
                }
              }
              JOINT rPinky1
              {
                OFFSET -8.27202 -0.0477905 -0.4584
                CHANNELS 3 Zrotation Xrotation Yrotation
                JOINT rPinky2
                {
                  OFFSET -1.82734 -0.647385 -0.700984
                  CHANNELS 3 Zrotation Xrotation Yrotation
                  End Site
                  {
                    OFFSET -1.69225 -0.51767 -0.607171
                  }
                }
              }
            }
          }
        }
      }
      JOINT lCollar
      {
        OFFSET 2.68224 19.2634 -4.8768
        CHANNELS 3 Zrotation Xrotation Yrotation
        JOINT lShldr
        {
          OFFSET 8.77824 -1.95073 1.46304
          CHANNELS 3 Zrotation Xrotation Yrotation
          JOINT lForeArm
          {
            OFFSET 28.1742 -1.7115 0.48768
            CHANNELS 3 Zrotation Xrotation Yrotation
            JOINT lHand
            {
              OFFSET 22.5879 0.773209 7.07136
              CHANNELS 3 Zrotation Xrotation Yrotation
              JOINT lThumb1
              {
                OFFSET 1.2192 -0.487915 3.41376
                CHANNELS 3 Zrotation Xrotation Yrotation
                JOINT lThumb2
                {
                  OFFSET 3.37035 -0.52449 3.41376
                  CHANNELS 3 Zrotation Xrotation Yrotation
                  End Site
                  {
                    OFFSET 1.78271 -1.18214 1.43049
                  }
                }
              }
              JOINT lIndex1
              {
                OFFSET 7.75947 0.938293 5.60832
                CHANNELS 3 Zrotation Xrotation Yrotation
                JOINT lIndex2
                {
                  OFFSET 2.54057 -0.884171 1.56538
                  CHANNELS 3 Zrotation Xrotation Yrotation
                  End Site
                  {
                    OFFSET 1.62519 -0.234802 1.16502
                  }
                }
              }
              JOINT lMid1
              {
                OFFSET 8.24714 1.18213 3.41376
                CHANNELS 3 Zrotation Xrotation Yrotation
                JOINT lMid2
                {
                  OFFSET 3.10165 -0.590103 1.0647
                  CHANNELS 3 Zrotation Xrotation Yrotation
                  End Site
                  {
                    OFFSET 2.48547 -0.328903 0.83742
                  }
                }
              }
              JOINT lRing1
              {
                OFFSET 8.82822 0.546677 1.51678
                CHANNELS 3 Zrotation Xrotation Yrotation
                JOINT lRing2
                {
                  OFFSET 2.60934 -0.819778 -0.0198488
                  CHANNELS 3 Zrotation Xrotation Yrotation
                  End Site
                  {
                    OFFSET 2.33842 -0.294052 0.168128
                  }
                }
              }
              JOINT lPinky1
              {
                OFFSET 8.27202 -0.0477905 -0.4584
                CHANNELS 3 Zrotation Xrotation Yrotation
                JOINT lPinky2
                {
                  OFFSET 1.82734 -0.647385 -0.700984
                  CHANNELS 3 Zrotation Xrotation Yrotation
                  End Site
                  {
                    OFFSET 1.69225 -0.51767 -0.607171
                  }
                }
              }
            }
          }
        }
      }
    }
  }
  JOINT rButtock
  {
    OFFSET -8.77824 4.35084 1.2192
    CHANNELS 3 Zrotation Xrotation Yrotation
    JOINT rThigh
    {
      OFFSET 0 -1.70687 -2.19456
      CHANNELS 3 Zrotation Xrotation Yrotation
      JOINT rShin
      {
        OFFSET 0 -36.8199 0.73152
        CHANNELS 3 Zrotation Xrotation Yrotation
        JOINT rFoot
        {
          OFFSET 0.73152 -45.1104 -5.12064
          CHANNELS 3 Zrotation Xrotation Yrotation
          End Site
          {
            OFFSET -1.1221 -3.69964 12.103
          }
        }
      }
    }
  }
  JOINT lButtock
  {
    OFFSET 8.77824 4.35084 1.2192
    CHANNELS 3 Zrotation Xrotation Yrotation
    JOINT lThigh
    {
      OFFSET 0 -1.70687 -2.19456
      CHANNELS 3 Zrotation Xrotation Yrotation
      JOINT lShin
      {
        OFFSET 0 -36.8199 0.73152
        CHANNELS 3 Zrotation Xrotation Yrotation
        JOINT lFoot
        {
          OFFSET -0.73152 -45.1104 -5.12064
          CHANNELS 3 Zrotation Xrotation Yrotation
          End Site
          {
            OFFSET 1.1221 -3.69964 12.103
          }
        }
      }
    }
  }
}
MOTION
Frames:	5
Frame Time:	0.00833333
201.55509999999998 58.8333 82.3484 8.04387 -55.457781 3.343151 -6.040985 3.165458 0.082562 -1.574255 -11.808055 20.340036 -2.410102 0.455243 -13.347086 4.466434 -18.032391 -3.230355 -0.000631 -0.0 0.002639 -0.000631 -0.0 0.002639 4.239822 -44.742755 -8.647292 36.154533 -3.680087 -13.49895 -132.092994 -69.498208 79.813895 157.394357 -42.396609 136.512723 -103.199441 36.330764 60.111271 21.652548 -31.304155 24.47979 2.326042 -3.867859 -1.258647 -65.474775 48.477654 50.843133 -157.052849 3.993115 141.296764 -5.067772 21.257711 4.815826 -145.119118 0.267481 -179.213063 -23.549908 -71.732006 -44.765084 12.988031 44.344274 10.762798 28.847886 75.252056 5.02061 149.90471 22.421572 -154.974904 -106.396235 -64.986336 -127.439964 -143.863398 75.166836 -86.714766 159.748806 21.613135 -135.435049 -1.842799 -1.827 0.253766 37.692389 26.835743 -32.888505 -28.866768 -48.97977 4.339584 -55.944425 -49.679808 -7.960005 -149.550395 -77.526042 -117.453771 -14.2496 -33.158879 0.937996 145.120319 0.309851 179.226228 141.962726 -56.352091 164.105592 156.382959 53.734377 150.116763 172.164621 71.503924 143.301911 -7.7e-05 0.000302 9.9e-05 -49.912873 -48.92107 -42.509022 -149.11068 59.094881 79.784974 -38.507256 -75.402694 48.797658 179.998298 75.74934 0.001164 -154.483553 46.000503 -18.593635 -5.885239 61.627847 -179.785082 -124.588905 -3.027589 -171.604754
200.3581 59.319599999999994 81.9794 7.87602 -55.306925 3.430081 -3.519099 0.433372 -97.01173 9.683918 -2.707699 117.346595 11.686179 9.743643 99.839995 -25.997489 17.87483 -113.396105 0.000622 -0.0 -0.002077 0.000622 -0.0 -0.002077 -40.044586 -86.055697 -61.575978 19.852136 12.260989 -25.878273 134.915484 -89.510952 -9.477681 167.587625 -24.359689 142.583 3.024879 -3.006699 -0.386974 -15.567273 15.463448 11.727259 -140.16534 2.327133 115.878849 -173.628348 -34.463614 117.168435 68.983881 -80.154015 40.577455 86.335506 -78.16996 57.798799 0.00112 -0.018711 -0.004548 -154.392365 11.21729 170.332889 1.136399 3.040001 1.045426 -76.031593 -54.862893 -75.641278 -4.261096 -46.0089 8.909442 -105.041942 74.614518 67.968355 16.080461 -54.449518 -82.711353 6.783733 -28.091785 6.468896 -81.971836 -50.091071 -32.722989 153.070562 -10.971843 -120.030714 28.902154 31.615321 -21.339003 -68.812725 -57.733248 -24.148469 36.035215 51.723167 -29.832681 -80.698068 -77.901952 -52.066871 0.019364 -1.725251 0.541896 154.030543 -65.023963 178.239066 112.780077 -40.023195 110.810858 -16.606648 41.515906 -6.620585 -179.997868 75.748718 -0.0022 150.194616 11.13953 -81.121295 -124.201115 -9.893227 -57.528783 69.659626 -20.092064 161.09058 -0.001288 0.00164 -0.001932 19.49297 -23.554031 8.417117 3.555464 47.978995 34.794442 -92.542763 14.761339 -14.156298
199.0981 59.8649 81.59440000000001 7.615094 -55.176857 3.591897 -5.665147 2.967204 0.057709 -1.562106 -12.034309 18.922713 -0.528296 19.969334 -158.006498 18.332202 34.110617 132.051371 -0.003718 0.0 -0.003172 0.003066 -0.0 -0.000391 -142.701463 39.918649 147.10028 -56.021416 44.079721 45.568898 173.165323 -1.542225 -75.267076 -13.599984 36.115226 3.013085 93.028311 -51.083308 40.501102 -137.244833 19.132289 98.879891 -166.821913 -43.973904 122.061055 14.69797 -1.534499 -9.638828 -39.289416 53.366224 32.877327 -174.96583 -39.039912 143.256874 0.000587 -0.018396 -0.006442 -156.113436 -13.744963 173.482957 -23.389255 -36.350376 -22.491939 -84.673477 -53.626392 -84.883241 159.221464 -48.725069 -170.567127 23.634413 -22.342946 21.091284 22.677514 -18.960324 144.845597 175.638106 -18.796574 -145.337081 164.886359 -2.56063 -89.605874 -11.587442 -55.664117 -16.808074 8.571363 12.509119 -5.449426 -9.484066 0.883458 0.463139 39.288511 53.366307 -32.877641 163.570469 -6.22148 -143.395173 145.119797 0.309638 179.226666 54.928674 87.580632 -68.117728 145.171921 12.067977 141.822798 126.569244 -29.681839 124.088752 179.99998 75.749284 2.1e-05 150.229809 10.540404 -80.062167 -123.277891 -7.211367 -79.288051 -50.378132 38.393518 -179.85642 1.9e-05 0.000358 9e-06 18.562739 -22.941917 105.941458 53.370266 0.838413 150.199528 -123.243739 73.465657 -139.093713
197.7801 60.4619 81.19340000000001 7.265029 -55.059338 3.835104 -2.950271 0.390401 -88.878464 9.709056 -4.071078 107.774454 -8.304966 6.846418 -56.895189 24.201428 -8.542397 36.453998 -0.001884 0.0 -0.003142 -0.001884 0.0 -0.003142 -69.037056 -86.842508 -90.939473 34.478094 41.911115 -30.526994 -21.361939 44.839631 123.119689 -2.675357 3.088601 -0.843923 -176.597933 -14.213282 89.691151 -128.650681 14.761343 63.522986 -117.600074 28.182317 99.434015 85.193165 -67.514282 37.321765 -36.03618 51.722713 29.833333 -42.041475 58.505771 36.266736 -8.9e-05 0.063814 0.019795 4.789027 -74.986075 -15.373799 -8.191051 -17.576032 -7.72885 -146.83478 11.169827 -143.521923 -4.26154 -46.008875 8.909308 -144.137187 76.53955 108.475652 35.612566 -62.141126 -67.400806 4.118919 -29.402714 5.814177 -83.253613 -50.257969 -33.616538 137.53496 16.707759 -102.168933 173.38749 -52.451254 -119.980384 109.426191 48.094831 -91.159849 166.11874 -24.039912 -145.077156 25.636285 49.012479 -21.174484 145.118614 0.185847 179.18583 145.050653 -50.807059 167.3363 154.406684 46.073302 149.059058 147.868787 10.873325 141.692014 0.005678 0.000626 0.002839 -51.696397 -50.425932 -58.66606 -144.195486 58.943942 -112.965924 121.296236 82.532378 151.694619 -0.002708 -0.000527 -0.001354 20.919408 -19.980334 -67.112913 -40.671868 9.883464 91.419103 -89.50728 -9.328219 -11.231291
196.4261 61.0258 80.7684 6.848151 -54.936573 4.148837 -4.921484 2.409167 -0.0 -1.591062 -12.149723 17.285567 3.527946 1.090243 26.59382 -13.968232 -14.249133 -50.561907 -0.001821 0.0 -0.001524 -0.000741 -0.0 0.00126 -143.62057 38.2333 148.080337 110.270455 -61.829292 121.449997 6.668853 -27.566202 104.164209 -9.695577 20.759906 0.266315 -157.99936 4.194747 88.450463 -33.647437 -25.320027 13.212801 4.608591 -7.830981 -2.379991 -2.426124 19.361222 4.754894 0.54071 -1.590097 -0.293946 2.826621 1.183167 0.132085 -73.165235 -72.141574 -90.198534 -52.043606 -82.060468 -77.900844 -140.596554 -1.001364 -137.663895 -111.370665 -42.674424 -110.068196 29.635748 58.071274 -32.036613 75.195335 47.747282 -101.704726 173.906247 -13.589057 76.891055 8.627367 -9.498318 3.89681 -88.928354 -50.831157 -37.599748 90.051338 38.432725 -51.238645 -159.64216 -69.973379 -102.39782 172.112032 -40.257783 -113.516512 0.057393 0.167982 -0.031395 166.224029 -13.925276 -144.07688 0.006764 3.558893 -1.120454 148.47963 -76.767175 171.062272 152.872789 39.991933 148.05991 -0.749828 -2.604827 2.693603 -0.0 0.000746 0.000619 -51.582141 -50.633649 -58.485503 -142.249792 54.555487 -62.984686 -28.364947 16.080787 -157.398587 -179.967857 75.748826 -0.021992 -149.491949 53.052242 44.665047 35.638321 15.057163 -99.387513 98.218623 15.68914 -5.730576
